<?xml version="1.0" encoding="UTF-8" standalone="no"?>
<!-- Created with Inkscape (http://www.inkscape.org/) -->

<svg
   xmlns:dc="http://purl.org/dc/elements/1.1/"
   xmlns:cc="http://creativecommons.org/ns#"
   xmlns:rdf="http://www.w3.org/1999/02/22-rdf-syntax-ns#"
   xmlns:svg="http://www.w3.org/2000/svg"
   xmlns="http://www.w3.org/2000/svg"
   xmlns:sodipodi="http://sodipodi.sourceforge.net/DTD/sodipodi-0.dtd"
   xmlns:inkscape="http://www.inkscape.org/namespaces/inkscape"
   version="1.1"
   id="svg4469"
   width="81.919998"
   height="81.919998"
   viewBox="0 0 81.919998 81.919998"
   sodipodi:docname="tumbr.svg"
   inkscape:version="0.92.4 (5da689c313, 2019-01-14)">
  <metadata
     id="metadata4475">
    <rdf:RDF>
      <cc:Work
         rdf:about="">
        <dc:format>image/svg+xml</dc:format>
        <dc:type
           rdf:resource="http://purl.org/dc/dcmitype/StillImage" />
        <dc:title></dc:title>
      </cc:Work>
    </rdf:RDF>
  </metadata>
  <defs
     id="defs4473" />
  <sodipodi:namedview
     pagecolor="#ffffff"
     bordercolor="#666666"
     borderopacity="1"
     objecttolerance="10"
     gridtolerance="10"
     guidetolerance="10"
     inkscape:pageopacity="0"
     inkscape:pageshadow="2"
     inkscape:window-width="1695"
     inkscape:window-height="1008"
     id="namedview4471"
     showgrid="false"
     inkscape:zoom="6.1094026"
     inkscape:cx="40.959999"
     inkscape:cy="40.959999"
     inkscape:window-x="0"
     inkscape:window-y="0"
     inkscape:window-maximized="0"
     inkscape:current-layer="svg4469" />
  <g
     id="tumbr"
     transform="translate(-1.3094572,0.81841067)">
    <path
       style="fill:#9ca5ae;stroke-width:0.05859375"
       d="m 43.737159,59.753305 c 0.0564,-0.01474 0.148682,-0.01474 0.205078,0 0.0564,0.01474 0.01025,0.0268 -0.102539,0.0268 -0.112793,0 -0.158935,-0.01206 -0.102539,-0.0268 z m 2.578125,0 c 0.0564,-0.01474 0.148682,-0.01474 0.205078,0 0.0564,0.01474 0.01025,0.0268 -0.102539,0.0268 -0.112793,0 -0.158935,-0.01206 -0.102539,-0.0268 z m -3.306885,-0.05823 c 0.0423,-0.01693 0.09284,-0.01485 0.112305,0.0046 0.01947,0.01947 -0.01514,0.03332 -0.0769,0.03077 -0.06826,-0.0028 -0.08214,-0.0167 -0.0354,-0.0354 z m 4.160157,0 c 0.0423,-0.01693 0.09283,-0.01485 0.112305,0.0046 0.01947,0.01947 -0.01514,0.03332 -0.07691,0.03077 -0.06826,-0.0028 -0.08214,-0.0167 -0.0354,-0.0354 z m -4.628907,-0.05859 c 0.0423,-0.01693 0.09284,-0.01485 0.112305,0.0046 0.01947,0.01947 -0.01514,0.03332 -0.0769,0.03077 -0.06826,-0.0028 -0.08214,-0.0167 -0.0354,-0.0354 z m 5.625,-0.05859 c 0.0423,-0.01693 0.09284,-0.01485 0.112305,0.0046 0.01947,0.01947 -0.01514,0.03332 -0.0769,0.03078 -0.06826,-0.0028 -0.08214,-0.0167 -0.0354,-0.0354 z M 35.33613,56.995844 c -0.07288,-0.09293 -0.07081,-0.09501 0.02212,-0.02212 0.0564,0.04423 0.102539,0.09037 0.102539,0.102539 0,0.04823 -0.04812,0.01719 -0.124662,-0.08042 z m -0.9375,-0.9375 c -0.07288,-0.09293 -0.07081,-0.09501 0.02212,-0.02212 0.0564,0.04423 0.102539,0.09037 0.102539,0.102539 0,0.04823 -0.04812,0.01719 -0.124662,-0.08042 z m 13.355863,-5.386706 c 0.0423,-0.01693 0.09284,-0.01485 0.112305,0.0046 0.01947,0.01947 -0.01514,0.03332 -0.0769,0.03078 -0.06826,-0.0028 -0.08214,-0.0167 -0.0354,-0.0354 z m -4.357934,-1.380872 -0.172095,-0.19043 0.19043,0.172095 c 0.177507,0.160417 0.217362,0.208764 0.172095,0.208764 -0.01008,0 -0.09578,-0.08569 -0.19043,-0.190429 z m 9.349389,0.07324 c -0.05281,-0.03413 -0.06004,-0.05716 -0.01811,-0.0577 0.03838,-4.68e-4 0.08608,0.02547 0.105997,0.0577 0.04496,0.07275 0.02468,0.07275 -0.08789,0 z M 42.559887,46.375727 c 0,-0.08057 0.0133,-0.113526 0.02955,-0.07324 0.01626,0.04028 0.01626,0.106201 0,0.146484 -0.01625,0.04028 -0.02955,0.0073 -0.02955,-0.07324 z m -10.48611,-6.533203 c 0.0012,-0.09668 0.01433,-0.129138 0.02918,-0.07213 0.01486,0.05701 0.01388,0.136112 -0.0022,0.175782 -0.01605,0.03967 -0.02821,-0.007 -0.02701,-0.103654 z m -0.05406,-7.060547 c 0,-0.14502 0.01143,-0.204346 0.02539,-0.131836 0.01397,0.07251 0.01397,0.191162 0,0.263672 -0.01397,0.07251 -0.02539,0.01318 -0.02539,-0.131836 z M 27.46316,32.489679 c -0.02053,-0.03322 0.003,-0.04304 0.05514,-0.02303 0.101508,0.03895 0.120081,0.08095 0.0358,0.08095 -0.03032,0 -0.07124,-0.02607 -0.09093,-0.05792 z m 1.072583,-7.833666 c 0.0423,-0.01693 0.09284,-0.01485 0.112305,0.0046 0.01947,0.01947 -0.01514,0.03332 -0.0769,0.03077 -0.06826,-0.0028 -0.08214,-0.0167 -0.0354,-0.0354 z m 13.995362,9.61e-4 c -0.02148,-0.02148 -0.03866,-0.06763 -0.03817,-0.102539 5.27e-4,-0.0379 0.01955,-0.0341 0.0472,0.0094 0.03619,0.057 1.119598,0.07625 4.964923,0.08823 l 4.918626,0.01532 -4.926758,0.01431 c -2.709717,0.0079 -4.944336,-0.0033 -4.96582,-0.02475 z m -9.472657,-2.326807 c 0,-0.01217 0.04614,-0.05831 0.102539,-0.10254 0.09293,-0.07288 0.09501,-0.07081 0.02212,0.02212 -0.07654,0.0976 -0.124662,0.128642 -0.124662,0.08042 z m 0.46875,-0.527344 c 0,-0.01217 0.04614,-0.05831 0.102539,-0.102539 0.09293,-0.07288 0.09501,-0.07081 0.02212,0.02212 -0.07654,0.0976 -0.124662,0.128642 -0.124662,0.08042 z m 2.465564,-5.754245 c 0.0028,-0.06826 0.01669,-0.08214 0.0354,-0.0354 0.01693,0.0423 0.01484,0.09283 -0.0046,0.112305 -0.01947,0.01947 -0.03332,-0.01514 -0.03077,-0.07691 z"
       id="path4493"
       inkscape:connector-curvature="0" />
    <path
       style="fill:#798593;stroke-width:0.05859375"
       d="m 34.842801,56.556391 -0.231618,-0.249024 0.249023,0.231618 c 0.136963,0.12739 0.249023,0.239451 0.249023,0.249024 0,0.04433 -0.05103,-2.9e-5 -0.266428,-0.231618 z M 32.06698,41.009516 c 0.0028,-0.06826 0.0167,-0.08214 0.0354,-0.0354 0.01693,0.0423 0.01485,0.09284 -0.0046,0.112305 -0.01947,0.01947 -0.03332,-0.01514 -0.03077,-0.0769 z M 27.402394,28.62182 c 0,-1.981933 0.0074,-2.792724 0.01637,-1.801757 0.009,0.990966 0.009,2.612548 0,3.603515 -0.009,0.990967 -0.01637,0.180176 -0.01637,-1.801758 z m 5.245898,-5.940091 c 0,-0.01217 0.04614,-0.05831 0.102539,-0.102539 0.09293,-0.07288 0.09501,-0.07081 0.02212,0.02212 -0.07654,0.0976 -0.124662,0.128641 -0.124662,0.08042 z"
       id="path4491"
       inkscape:connector-curvature="0" />
    <path
       style="fill:#637284;stroke-width:0.05859375"
       d="m 44.821144,59.808906 c 0.201416,-0.01144 0.531005,-0.01144 0.732421,0 0.201416,0.01144 0.03662,0.0208 -0.366211,0.0208 -0.402832,0 -0.567626,-0.0094 -0.36621,-0.0208 z M 32.08984,44.55932 c 0,-1.91748 0.0074,-2.701904 0.01643,-1.743164 0.009,0.958741 0.009,2.527588 0,3.486329 -0.009,0.95874 -0.01643,0.174316 -0.01643,-1.743165 z m 10.43045,-5.566406 c 0,-3.432129 0.0071,-4.836181 0.01569,-3.120117 0.0086,1.716064 0.0086,4.52417 0,6.240234 -0.0086,1.716065 -0.01569,0.312012 -0.01569,-3.120117 z M 32.008387,33.157953 c 0.0028,-0.06826 0.01669,-0.08214 0.0354,-0.0354 0.01693,0.0423 0.01484,0.09283 -0.0046,0.112305 -0.01947,0.01947 -0.03332,-0.01514 -0.03077,-0.07691 z M 27.37948,32.279047 c 0.0028,-0.06826 0.0167,-0.08214 0.0354,-0.0354 0.01693,0.0423 0.01485,0.09283 -0.0046,0.112305 -0.01947,0.01947 -0.03332,-0.01514 -0.03077,-0.07691 z m 0.0046,-7.348633 c 0,-0.08057 0.0133,-0.113525 0.02955,-0.07324 0.01625,0.04028 0.01625,0.106201 0,0.146484 -0.01626,0.04028 -0.02955,0.0073 -0.02955,-0.07324 z m 0.151881,-0.27318 c 0.04028,-0.01625 0.106201,-0.01625 0.146485,0 0.04028,0.01625 0.0073,0.02955 -0.07324,0.02955 -0.08057,0 -0.113525,-0.0133 -0.07324,-0.02955 z m 14.983977,-4.912367 c 4e-6,-2.578125 0.0072,-3.624256 0.01601,-2.324737 0.0088,1.29952 0.0088,3.408895 -8e-6,4.6875 -0.0088,1.278606 -0.016,0.215362 -0.016,-2.362763 z m -4.671477,-4.877883 c 0.813721,-0.0092 2.145264,-0.0092 2.958985,0 0.81372,0.0092 0.147949,0.01671 -1.479493,0.01671 -1.627441,0 -2.293212,-0.0075 -1.479492,-0.01671 z"
       id="path4489"
       inkscape:connector-curvature="0" />
    <path
       style="fill:#546478;stroke-width:0.05859375"
       d="m 44.356056,59.812263 c 0.0423,-0.01693 0.09283,-0.01485 0.112305,0.0046 0.01947,0.01947 -0.01514,0.03332 -0.07691,0.03078 -0.06826,-0.0028 -0.08214,-0.0167 -0.0354,-0.0354 z M 32.087069,49.188227 c 0,-0.660645 0.0085,-0.930909 0.01899,-0.600586 0.01045,0.330322 0.01045,0.870849 0,1.201172 -0.01044,0.330322 -0.01899,0.06006 -0.01899,-0.600586 z M 32.030025,35.18432 c 0,-1.079589 0.0079,-1.52124 0.01758,-0.981445 0.0097,0.539795 0.0097,1.423096 0,1.962891 -0.0097,0.539795 -0.01758,0.09814 -0.01758,-0.981446 z m 20.567746,-6.591796 c 6e-6,-2.0625 0.0073,-2.897749 0.01632,-1.856108 0.009,1.041641 0.009,2.729141 -1.2e-5,3.75 -0.009,1.020859 -0.01631,0.168608 -0.01631,-1.893892 z"
       id="path4487"
       inkscape:connector-curvature="0" />
    <path
       style="fill:#455972;stroke-width:0.05859375"
       d="M 10.18107,67.299326 C 10.16311,67.270266 10.15498,53.77688 10.163,37.314034 L 10.177589,7.3815861 H 40.148292 70.118995 V 37.352289 67.322992 l -29.952633,0.01459 c -17.750537,0.0086 -29.965937,-0.0069 -29.985292,-0.03826 z m 36.978025,-7.525285 c 0.198227,-0.01966 0.471737,-0.06076 0.607801,-0.09133 0.136063,-0.03057 0.279301,-0.04334 0.318308,-0.02837 0.03901,0.01497 0.279656,-0.01688 0.534777,-0.07076 0.255122,-0.05389 0.516592,-0.106109 0.581045,-0.116046 0.281342,-0.04338 0.535901,-0.08659 0.644532,-0.109414 0.06445,-0.01354 0.196289,-0.04 0.292968,-0.0588 0.09668,-0.0188 0.2417,-0.05121 0.322266,-0.07203 0.08057,-0.02082 0.172852,-0.04444 0.205078,-0.0525 0.03223,-0.0081 0.177246,-0.04484 0.322266,-0.08175 0.145019,-0.0369 0.316406,-0.07556 0.380859,-0.0859 0.06445,-0.01034 0.117188,-0.02412 0.117188,-0.03063 0,-0.0065 0.06592,-0.02336 0.146484,-0.03746 0.08057,-0.01409 0.186035,-0.04246 0.234375,-0.06304 0.04834,-0.02058 0.140625,-0.04695 0.205078,-0.05859 0.06445,-0.01165 0.156738,-0.03837 0.205078,-0.05938 0.04834,-0.02101 0.107666,-0.04378 0.131836,-0.05059 0.02417,-0.0068 0.05713,-0.01898 0.07324,-0.02703 0.01611,-0.0081 0.04907,-0.01924 0.07324,-0.02485 0.249696,-0.05798 0.293677,-0.106841 0.329153,-0.365669 0.04786,-0.349162 0.04735,-8.474969 -5.27e-4,-8.764751 -0.03316,-0.200605 -0.05265,-0.219727 -0.223965,-0.219727 -0.103205,0 -0.205903,0.01826 -0.228218,0.04057 -0.02231,0.02231 -0.09922,0.04899 -0.170899,0.05927 -0.07168,0.01029 -0.169876,0.03589 -0.218216,0.05691 -0.04834,0.02101 -0.107666,0.04378 -0.131836,0.05059 -0.02417,0.0068 -0.05054,0.0177 -0.05859,0.02419 -0.01714,0.01382 -0.0959,0.03451 -0.454102,0.119321 -0.145019,0.03433 -0.303222,0.07887 -0.351562,0.09896 -0.04834,0.0201 -0.138169,0.04622 -0.19962,0.05807 -0.273242,0.05265 -0.774462,0.215249 -0.849424,0.275557 -0.04524,0.03639 -0.09182,0.05758 -0.103515,0.04708 -0.03665,-0.03289 -0.396615,0.05905 -0.473418,0.120921 -0.04028,0.03245 -0.07324,0.04376 -0.07324,0.02513 0,-0.01863 -0.11206,0.0068 -0.249023,0.05653 -0.136963,0.04972 -0.328125,0.102996 -0.424805,0.118392 -0.09668,0.0154 -0.270624,0.05258 -0.386543,0.08263 -0.324238,0.08405 -0.737061,0.12444 -1.283379,0.125563 -0.613519,0.0013 -0.85276,-0.03122 -1.376953,-0.186958 -0.225586,-0.06702 -0.436523,-0.129518 -0.46875,-0.138883 -0.18323,-0.05324 -0.529627,-0.229624 -0.753618,-0.383734 -0.141277,-0.0972 -0.273404,-0.160192 -0.293617,-0.139979 -0.02023,0.02021 -0.03677,0.0096 -0.03677,-0.02364 0,-0.03321 -0.109943,-0.136487 -0.244318,-0.229493 -0.285679,-0.197728 -0.575994,-0.477194 -0.575994,-0.554468 0,-0.02975 -0.02637,-0.05409 -0.05859,-0.05409 -0.03223,0 -0.05859,-0.03632 -0.05859,-0.08072 0,-0.04439 -0.03871,-0.11284 -0.08602,-0.152104 -0.04731,-0.03926 -0.08374,-0.08863 -0.08095,-0.109713 0.0028,-0.02108 -5.9e-5,-0.05151 -0.0064,-0.06762 -0.0063,-0.01611 -0.02105,-0.06885 -0.03281,-0.117187 -0.06319,-0.259666 -0.0894,-0.408532 -0.118633,-0.673828 -0.01776,-0.161133 -0.05984,-0.464356 -0.09353,-0.673828 -0.03369,-0.209473 -0.0743,-0.499512 -0.09025,-0.644532 -0.01595,-0.145019 -0.04117,-3.278476 -0.05603,-6.963237 -0.02044,-5.066066 -0.0103,-6.71972 0.04158,-6.782226 0.05804,-0.06993 0.81463,-0.08266 4.91351,-0.08266 4.091809,0 4.862587,-0.01293 4.958646,-0.08317 0.110585,-0.08086 0.113738,-0.189609 0.113738,-3.922851 0,-3.071973 -0.01523,-3.854914 -0.07616,-3.915857 -0.06101,-0.06102 -1.044765,-0.07928 -4.946372,-0.09182 -3.449046,-0.01108 -4.892988,-0.03455 -4.948257,-0.08042 -0.06381,-0.05296 -0.07804,-0.922974 -0.07804,-4.770207 0,-4.199545 -0.0099,-4.715336 -0.09208,-4.797513 -0.0813,-0.0813 -0.441833,-0.09208 -3.080024,-0.09208 -1.860769,0 -3.028857,0.02189 -3.096389,0.05804 -0.120208,0.06433 -0.274644,0.503472 -0.288684,0.82087 -0.005,0.112793 -0.03606,0.305612 -0.06904,0.428485 -0.03298,0.122874 -0.06979,0.294261 -0.08179,0.38086 -0.03607,0.260232 -0.204819,1.0175 -0.292965,1.314679 -0.0454,0.153076 -0.06756,0.27832 -0.04924,0.27832 0.01832,0 0.0042,0.03503 -0.03129,0.07784 -0.03553,0.04281 -0.07635,0.141689 -0.09071,0.219726 -0.01436,0.07804 -0.03136,0.148478 -0.03779,0.156535 -0.0064,0.0081 -0.01827,0.04101 -0.02633,0.07324 -0.0081,0.03223 -0.02124,0.07178 -0.0293,0.08789 -0.0081,0.01611 -0.01888,0.04907 -0.02405,0.07324 -0.0052,0.02417 -0.04588,0.109863 -0.09047,0.190429 -0.04459,0.08057 -0.07608,0.153353 -0.06998,0.161747 0.0061,0.0084 -0.02967,0.09409 -0.07949,0.19043 -0.04982,0.09634 -0.07013,0.175571 -0.04513,0.176064 0.025,4.69e-4 0.01617,0.02027 -0.01962,0.04395 -0.07697,0.05092 -0.257199,0.389735 -0.257199,0.483501 0,0.03598 -0.06263,0.149347 -0.139176,0.251933 -0.07655,0.102586 -0.185021,0.285397 -0.241052,0.406247 -0.05603,0.120849 -0.125237,0.219726 -0.153792,0.219726 -0.02855,0 -0.05192,0.03955 -0.05192,0.08789 0,0.04834 -0.02719,0.08789 -0.06043,0.08789 -0.03324,0 -0.07737,0.04413 -0.09806,0.09806 -0.0207,0.05393 -0.07919,0.143534 -0.129997,0.19911 -0.0508,0.05558 -0.204704,0.228978 -0.342004,0.385336 -0.137301,0.156358 -0.298507,0.337022 -0.358236,0.401475 -0.112718,0.121632 -0.589894,0.54005 -0.818986,0.718138 -0.07229,0.0562 -0.200106,0.159187 -0.284033,0.228868 -0.08393,0.06968 -0.221104,0.161924 -0.304836,0.204984 -0.08373,0.04306 -0.165424,0.09152 -0.181537,0.107682 -0.02958,0.02967 -0.241592,0.141275 -0.9375,0.4935 -0.377391,0.191012 -0.619366,0.298303 -0.732422,0.324754 -0.03223,0.0075 -0.111328,0.0428 -0.175781,0.07835 -0.06445,0.03556 -0.143555,0.07097 -0.175782,0.07869 -0.03223,0.0077 -0.124511,0.03019 -0.205078,0.04992 -0.378209,0.09264 -1.032643,0.161803 -1.460041,0.154311 -0.174604,-0.0031 -0.352583,0.02358 -0.395507,0.05921 -0.06355,0.05274 -0.07788,0.773386 -0.07715,3.880838 5.27e-4,2.30046 0.02295,3.850976 0.05641,3.903959 0.04738,0.07501 0.370905,0.09035 2.207567,0.104659 1.302513,0.01015 2.179538,0.03958 2.221681,0.07456 0.0383,0.03178 0.08571,0.1382 0.105369,0.236482 0.01966,0.09828 0.04999,4.046177 0.06742,8.7731 0.01742,4.726923 0.04791,8.713058 0.06774,8.858078 0.0466,0.340693 0.10156,0.666745 0.160517,0.952305 0.01495,0.07242 0.04283,0.235485 0.06194,0.362359 0.01911,0.126874 0.06003,0.261136 0.09092,0.29836 0.03089,0.03722 0.03946,0.08439 0.01903,0.104818 -0.02043,0.02043 -0.0038,0.07733 0.03698,0.126445 0.04076,0.04912 0.05984,0.08931 0.04238,0.08931 -0.04243,0 0.354922,1.152141 0.474584,1.376084 0.05192,0.09716 0.152124,0.3156 0.222685,0.485427 0.07056,0.169828 0.190886,0.393949 0.267389,0.498047 0.0765,0.104099 0.175737,0.261334 0.22052,0.349414 0.04478,0.08808 0.12994,0.21222 0.189239,0.27587 0.0593,0.06365 0.107815,0.137336 0.107815,0.163749 0,0.02641 0.04614,0.08898 0.102539,0.139044 0.0564,0.05006 0.181641,0.192733 0.278321,0.317045 0.20963,0.269546 0.69749,0.761444 0.957705,0.965632 0.102673,0.08057 0.231682,0.192627 0.286688,0.249024 0.05501,0.0564 0.119159,0.102539 0.142563,0.102539 0.0234,0 0.114366,0.06655 0.202138,0.147898 0.08777,0.08134 0.220966,0.163304 0.295987,0.182133 0.07502,0.01883 0.136403,0.05774 0.136403,0.08648 0,0.02873 0.03767,0.05224 0.08371,0.05224 0.04604,0 0.118548,0.03395 0.161133,0.07543 0.12855,0.125241 0.470312,0.313 0.778756,0.427835 0.160144,0.05962 0.383249,0.155348 0.495788,0.212723 0.112538,0.05738 0.246501,0.104319 0.297695,0.104319 0.05119,0 0.118128,0.02479 0.148743,0.05509 0.03062,0.0303 0.125861,0.06768 0.211658,0.08308 0.0858,0.01539 0.211041,0.05745 0.27832,0.09346 0.06728,0.03601 0.122327,0.04813 0.122327,0.02693 0,-0.02119 0.03296,-0.0113 0.07324,0.02199 0.07031,0.0581 0.493488,0.159442 0.526162,0.126004 0.0087,-0.0089 0.06946,0.0125 0.134995,0.04757 0.06554,0.03508 0.233023,0.08076 0.372183,0.101513 0.139159,0.02076 0.32284,0.06441 0.408178,0.097 0.08534,0.0326 0.234263,0.07239 0.330943,0.08843 0.313309,0.05199 0.349082,0.05875 0.527344,0.09975 0.249352,0.05735 0.535999,0.09775 0.908203,0.127982 0.177246,0.0144 0.447816,0.0555 0.601267,0.09133 0.15345,0.03583 0.313991,0.05172 0.356757,0.03531 0.04277,-0.01641 0.167703,-0.0089 0.277639,0.01677 0.222723,0.05193 3.101915,0.03732 3.665765,-0.0186 z"
       id="path4485"
       inkscape:connector-curvature="0" />
    <path
       style="fill:#43566c;stroke-width:0.05859375"
       d="m 43.796559,59.810243 c 0.08907,-0.01347 0.220902,-0.01311 0.292968,7.97e-4 0.07207,0.01391 -8.02e-4,0.02493 -0.161938,0.02449 -0.161133,-4.69e-4 -0.220096,-0.01182 -0.13103,-0.02529 z m 2.460131,5.9e-5 c 0.08862,-0.01342 0.233643,-0.01342 0.322266,0 0.08862,0.01342 0.01611,0.02441 -0.161133,0.02441 -0.177246,0 -0.249756,-0.01099 -0.161133,-0.02441 z m -3.221541,-0.05723 c 0.05701,-0.01486 0.136112,-0.01388 0.175781,0.0022 0.03967,0.01605 -0.007,0.0282 -0.103654,0.02701 -0.09668,-0.0012 -0.129137,-0.01433 -0.07213,-0.02918 z m -0.96425,-0.116608 c 0.0423,-0.01693 0.09284,-0.01485 0.112305,0.0046 0.01947,0.01947 -0.01514,0.03332 -0.0769,0.03077 -0.06826,-0.0028 -0.08214,-0.0167 -0.0354,-0.0354 z m 6.445313,-0.05859 c 0.0423,-0.01693 0.09283,-0.01485 0.112305,0.0046 0.01947,0.01947 -0.01514,0.03332 -0.0769,0.03077 -0.06826,-0.0028 -0.08214,-0.0167 -0.0354,-0.0354 z M 37.010077,58.179135 c -0.107245,-0.08592 -0.105375,-0.08714 0.03275,-0.02136 0.179357,0.08542 0.212598,0.112483 0.138153,0.112483 -0.03144,0 -0.108343,-0.041 -0.170899,-0.09112 z m 15.880876,-4.274111 c 5e-6,-2.384766 0.0073,-3.351814 0.01611,-2.148995 0.0089,1.202817 0.0089,3.153989 -9e-6,4.335937 -0.0089,1.181947 -0.01611,0.197823 -0.0161,-2.186942 z M 35.33613,57.054438 c -0.07288,-0.09293 -0.07081,-0.09501 0.02212,-0.02212 0.0564,0.04423 0.102539,0.09037 0.102539,0.102539 0,0.04823 -0.04812,0.01719 -0.124662,-0.08042 z m -0.407117,-0.351563 -0.142049,-0.161133 0.161133,0.14205 c 0.150603,0.132767 0.188003,0.180216 0.142049,0.180216 -0.01049,0 -0.08301,-0.07251 -0.161133,-0.161133 z m -0.296008,-0.292969 c -0.07288,-0.09293 -0.07081,-0.09501 0.02212,-0.02212 0.0564,0.04423 0.102539,0.09037 0.102539,0.102539 0,0.04823 -0.04812,0.01719 -0.124662,-0.08042 z m 12.269022,-5.740288 c 0.08907,-0.01347 0.220902,-0.01311 0.292969,7.97e-4 0.07207,0.01391 -8.03e-4,0.02493 -0.161938,0.02449 -0.161133,-4.69e-4 -0.220097,-0.01182 -0.131031,-0.02529 z m 0.852466,-0.05657 c 0.0423,-0.01693 0.09284,-0.01484 0.112305,0.0046 0.01947,0.01947 -0.01514,0.03332 -0.0769,0.03077 -0.06826,-0.0028 -0.08214,-0.0167 -0.0354,-0.0354 z M 32.06698,50.44311 c 0.0028,-0.06826 0.0167,-0.08214 0.0354,-0.0354 0.01693,0.0423 0.01485,0.09284 -0.0046,0.112305 -0.01947,0.01947 -0.03332,-0.01514 -0.03077,-0.0769 z m 11.70665,-0.888672 c -0.07288,-0.09293 -0.07081,-0.09501 0.02212,-0.02212 0.0564,0.04423 0.102539,0.09037 0.102539,0.102539 0,0.04823 -0.04812,0.01719 -0.124662,-0.08042 z m -1.042587,-2.158203 c 0.0028,-0.06826 0.0167,-0.08214 0.0354,-0.0354 0.01693,0.0423 0.01485,0.09284 -0.0046,0.112305 -0.01947,0.01947 -0.03332,-0.01514 -0.03077,-0.0769 z m -0.05859,-0.410157 c 0.0028,-0.06826 0.0167,-0.08214 0.0354,-0.0354 0.01693,0.0423 0.01484,0.09283 -0.0046,0.112305 -0.01947,0.01947 -0.03332,-0.01514 -0.03077,-0.07691 z m -0.05397,-0.610351 c 0,-0.08057 0.0133,-0.113526 0.02955,-0.07324 0.01625,0.04028 0.01625,0.106201 0,0.146484 -0.01626,0.04028 -0.02955,0.0073 -0.02955,-0.07324 z M 32.024559,38.729242 c -1.76e-4,-0.290039 0.0097,-0.416079 0.02202,-0.280088 0.01229,0.13599 0.01244,0.373295 3.52e-4,0.527344 -0.01211,0.154048 -0.02217,0.04278 -0.02234,-0.247256 z m -0.172388,-6.063699 c -0.03529,-0.03529 -0.879277,-0.06414 -2.16504,-0.07401 l -2.107198,-0.01617 2.147051,-0.01388 c 1.86309,-0.01205 2.151512,-0.0023 2.180779,0.07401 0.03932,0.10247 0.02472,0.110362 -0.05559,0.03005 z m 13.207736,-0.103279 c 1.363985,-0.0088 3.578829,-0.0088 4.921875,7e-6 1.343045,0.0088 0.227057,0.01594 -2.479974,0.01594 -2.707032,-4e-6 -3.805887,-0.0072 -2.441901,-0.01595 z m -16.585736,-7.96626 c 0.07289,-0.01402 0.178354,-0.01348 0.234375,0.0012 0.05602,0.01467 -0.0036,0.02613 -0.13252,0.02548 -0.128906,-6.5e-4 -0.174741,-0.01265 -0.101855,-0.02666 z m 4.203418,-2.00934 c 0.05833,-0.06445 0.119237,-0.117187 0.13535,-0.117187 0.01611,0 -0.01843,0.05273 -0.07676,0.117187 -0.05833,0.06445 -0.119237,0.117188 -0.135351,0.117188 -0.01611,0 0.01843,-0.05274 0.07676,-0.117188 z m 2.026396,-2.548828 c 0,-0.03223 0.05052,-0.150879 0.112276,-0.263672 0.06175,-0.112793 0.112275,-0.178711 0.112275,-0.146484 0,0.03223 -0.05052,0.150879 -0.112275,0.263672 -0.06175,0.112793 -0.112276,0.178711 -0.112276,0.146484 z m 1.054402,-3.110351 c 0.0028,-0.06826 0.01669,-0.08214 0.0354,-0.0354 0.01693,0.0423 0.01484,0.09283 -0.0046,0.112305 -0.01947,0.01947 -0.03332,-0.01514 -0.03077,-0.0769 z m 0.234375,-1.40625 c 0.0028,-0.06826 0.01669,-0.08214 0.0354,-0.0354 0.01693,0.0423 0.01484,0.09283 -0.0046,0.112305 -0.01947,0.01947 -0.03332,-0.01514 -0.03077,-0.0769 z"
       id="path4483"
       inkscape:connector-curvature="0" />
    <path
       style="fill:#3c4f65;stroke-width:0.05859375"
       d="m 43.363474,49.202875 c -0.07288,-0.09293 -0.07081,-0.09501 0.02212,-0.02212 0.0564,0.04423 0.102539,0.09037 0.102539,0.10254 0,0.04822 -0.04812,0.01719 -0.124662,-0.08042 z m -0.803587,-3.647461 c 0,-0.08057 0.0133,-0.113525 0.02955,-0.07324 0.01626,0.04028 0.01626,0.106201 0,0.146484 -0.01625,0.04028 -0.02955,0.0073 -0.02955,-0.07324 z M 32.022988,40.428461 c 2.34e-4,-0.225586 0.01085,-0.310691 0.02353,-0.189123 0.01268,0.121569 0.01247,0.306139 -4.68e-4,0.410156 -0.01294,0.104018 -0.02332,0.0046 -0.02306,-0.221033 z m -0.0045,-0.996094 c 6.5e-4,-0.128906 0.01265,-0.174741 0.02666,-0.101856 0.01402,0.07289 0.01348,0.178355 -0.0012,0.234375 -0.01467,0.05602 -0.02613,-0.0036 -0.02548,-0.132519 z m -0.08587,-6.65039 c -0.01419,-0.09668 -0.004,-0.175782 0.02265,-0.175782 0.02665,0 0.04845,0.0791 0.04845,0.175782 0,0.09668 -0.01019,0.175781 -0.02265,0.175781 -0.01246,0 -0.03426,-0.0791 -0.04845,-0.175781 z m 10.617968,-0.117188 c 0,-0.03223 0.02792,-0.05859 0.06205,-0.05859 0.03413,0 0.04576,0.02637 0.02584,0.05859 -0.01992,0.03223 -0.04784,0.05859 -0.06205,0.05859 -0.01421,0 -0.02584,-0.02637 -0.02584,-0.05859 z m 0,-8.122408 c 0,-0.073 0.01829,-0.07988 0.07883,-0.02964 0.05629,0.04671 1.45126,0.06981 4.877929,0.08076 l 4.799099,0.01534 -4.87793,0.0143 c -4.466366,0.01309 -4.877929,0.0063 -4.877928,-0.08076 z m -9.111328,-2.717436 c 0.05833,-0.06445 0.119237,-0.117187 0.13535,-0.117187 0.01611,0 -0.01843,0.05273 -0.07676,0.117187 -0.05833,0.06445 -0.119237,0.117188 -0.13535,0.117188 -0.01611,0 0.01843,-0.05273 0.07676,-0.117188 z"
       id="path4481"
       inkscape:connector-curvature="0" />
  </g>
</svg>
