<?xml version="1.0" encoding="UTF-8" standalone="no"?>
<!-- Created with Inkscape (http://www.inkscape.org/) -->

<svg
   xmlns:dc="http://purl.org/dc/elements/1.1/"
   xmlns:cc="http://creativecommons.org/ns#"
   xmlns:rdf="http://www.w3.org/1999/02/22-rdf-syntax-ns#"
   xmlns:svg="http://www.w3.org/2000/svg"
   xmlns="http://www.w3.org/2000/svg"
   xmlns:sodipodi="http://sodipodi.sourceforge.net/DTD/sodipodi-0.dtd"
   xmlns:inkscape="http://www.inkscape.org/namespaces/inkscape"
   version="1.1"
   id="svg4335"
   width="132.16"
   height="132.16"
   viewBox="0 0 132.16 132.16"
   sodipodi:docname="twitter.svg"
   inkscape:version="0.92.4 (5da689c313, 2019-01-14)">
  <metadata
     id="metadata4341">
    <rdf:RDF>
      <cc:Work
         rdf:about="">
        <dc:format>image/svg+xml</dc:format>
        <dc:type
           rdf:resource="http://purl.org/dc/dcmitype/StillImage" />
        <dc:title></dc:title>
      </cc:Work>
    </rdf:RDF>
  </metadata>
  <defs
     id="defs4339" />
  <sodipodi:namedview
     pagecolor="#ffffff"
     bordercolor="#666666"
     borderopacity="1"
     objecttolerance="10"
     gridtolerance="10"
     guidetolerance="10"
     inkscape:pageopacity="0"
     inkscape:pageshadow="2"
     inkscape:window-width="1545"
     inkscape:window-height="914"
     id="namedview4337"
     showgrid="false"
     inkscape:zoom="2.3"
     inkscape:cx="66.080002"
     inkscape:cy="66.080002"
     inkscape:window-x="0"
     inkscape:window-y="0"
     inkscape:window-maximized="0"
     inkscape:current-layer="svg4335" />
  <g
     id="twitter"
     transform="matrix(0.75781473,0,0,0.75781473,17.863904,15.447644)">
    <path
       style="fill:#d1eefd;stroke-width:0.31999999"
       d="m 51.28,103.7708 c 0.484,-0.0733 1.276,-0.0733 1.76,0 0.484,0.0733 0.088,0.13331 -0.88,0.13331 -0.968,0 -1.364,-0.06 -0.88,-0.13331 z M 26.16,96.10807 c 0.22,-0.08877 0.58,-0.08877 0.8,0 0.22,0.08877 0.04,0.161405 -0.4,0.161405 -0.44,0 -0.62,-0.07263 -0.4,-0.161405 z m 4.48,0 c 0.22,-0.08877 0.58,-0.08877 0.8,0 0.22,0.08877 0.04,0.161405 -0.4,0.161405 -0.44,0 -0.62,-0.07263 -0.4,-0.161405 z M 87.68,89.44 c 0.41336,-0.44 0.823562,-0.8 0.911562,-0.8 0.088,0 -0.178202,0.36 -0.591562,0.8 -0.41336,0.44 -0.823562,0.8 -0.911562,0.8 -0.088,0 0.178202,-0.36 0.591562,-0.8 z M 36.08,76.26807 c 0.22,-0.08877 0.58,-0.08877 0.8,0 0.22,0.08877 0.04,0.161405 -0.4,0.161405 -0.44,0 -0.62,-0.07263 -0.4,-0.161405 z m 2.58,-0.0067 c 0.230998,-0.09244 0.506998,-0.08107 0.613334,0.02525 0.106333,0.106333 -0.08267,0.181965 -0.42,0.168071 C 38.48055,76.439373 38.404726,76.363552 38.66,76.261402 Z m 28.16,-21.44 c 0.230998,-0.09244 0.506998,-0.08107 0.613334,0.02525 0.106333,0.106333 -0.08267,0.181965 -0.42,0.168071 C 66.64055,54.999373 66.564726,54.923552 66.82,54.821402 Z m 0.405264,-2.84807 c 0.01536,-0.372784 0.09118,-0.448608 0.193331,-0.193334 0.09244,0.230998 0.08107,0.506998 -0.02525,0.613334 -0.106336,0.106333 -0.181965,-0.08267 -0.16807,-0.42 z m 0,-2.56 c 0.01536,-0.372784 0.09118,-0.448608 0.193331,-0.193334 0.09244,0.230998 0.08107,0.506998 -0.02525,0.613334 -0.106336,0.106333 -0.181965,-0.08267 -0.16807,-0.42 z M 28.210526,46.08 c 0,-0.44 0.07263,-0.62 0.161404,-0.4 0.08877,0.22 0.08877,0.58 0,0.8 -0.08877,0.22 -0.161404,0.04 -0.161404,-0.4 z m 0,-2.24 c 0,-0.44 0.07263,-0.62 0.161404,-0.4 0.08877,0.22 0.08877,0.58 0,0.8 -0.08877,0.22 -0.161404,0.04 -0.161404,-0.4 z M 84.56,32.739414 c 0.308,-0.08049 0.812,-0.08049 1.12,0 0.308,0.08049 0.056,0.146346 -0.56,0.146346 -0.616,0 -0.868,-0.06586 -0.56,-0.146346 z"
       id="path4357"
       inkscape:connector-curvature="0" />
    <path
       style="fill:#b1e4fc;stroke-width:0.31999999"
       d="M 4.6095962,127.28 4,126.56 4.72,127.1696 C 5.3966224,127.74247 5.5856771,128 5.3295962,128 c -0.060722,0 -0.3847223,-0.324 -0.72,-0.72 z M 127.2,127.36 c 0.31856,-0.352 0.65119,-0.64 0.73919,-0.64 0.088,0 -0.10063,0.288 -0.41919,0.64 -0.31856,0.352 -0.65119,0.64 -0.73919,0.64 -0.088,0 0.10063,-0.288 0.41919,-0.64 z M 86.08,91.079181 c 0,-0.06645 0.252,-0.318448 0.56,-0.56 0.507539,-0.398039 0.518858,-0.38672 0.120819,0.120819 C 86.342781,91.17304 86.08,91.342554 86.08,91.079181 Z m 2.56,-2.56 c 0,-0.06645 0.252,-0.318448 0.56,-0.56 0.507539,-0.398039 0.518858,-0.38672 0.120819,0.120819 C 88.902781,88.61304 88.64,88.782554 88.64,88.519181 Z M 97.559181,37.84 C 97.161142,37.332461 97.172461,37.321142 97.68,37.719181 98.21304,38.137219 98.382554,38.4 98.119181,38.4 c -0.06645,0 -0.318448,-0.252 -0.56,-0.56 z M 4.64,4.8 C 4.9585555,4.448 5.291192,4.16 5.379192,4.16 5.467192,4.16 5.2785555,4.448 4.96,4.8 4.6414445,5.152 4.308808,5.44 4.220808,5.44 4.132808,5.44 4.3214445,5.152 4.64,4.8 Z M 127.1696,4.72 126.56,4 l 0.72,0.6095962 c 0.396,0.3352777 0.72,0.6592777 0.72,0.72 0,0.2560809 -0.25753,0.067026 -0.8304,-0.6095962 z"
       id="path4355"
       inkscape:connector-curvature="0" />
    <path
       style="fill:#9cddfc;stroke-width:0.31999999"
       d="m 40.425219,131.92002 c 14.225869,-0.0461 37.409869,-0.0461 51.52,1e-5 14.110131,0.0461 2.470781,0.0838 -25.865219,0.0838 -28.336,-1e-5 -39.880652,-0.0377 -25.654781,-0.0838 z M 0.15614987,66.08 c 6.37e-6,-28.336 0.0377295,-39.880652 0.0838291,-25.654781 0.0460996,14.225869 0.0460944,37.409869 -1.158e-5,51.52 C 0.19386139,106.05535 0.1561435,94.416 0.15614987,66.08 Z m 131.84000013,0 c 1e-5,-28.336 0.0377,-39.880652 0.0838,-25.654781 0.0461,14.225869 0.0461,37.409869 -1e-5,51.52 -0.0461,14.110131 -0.0838,2.470781 -0.0838,-25.865219 z m -82.95006,37.69824 c 0.31135,-0.0811 0.74335,-0.0758 0.96,0.0119 0.216649,0.0876 -0.03809,0.15403 -0.56609,0.14751 -0.528,-0.007 -0.705261,-0.0782 -0.39391,-0.15937 z m 5.11391,0.001 c 0.308,-0.0805 0.812,-0.0805 1.12,0 0.308,0.0805 0.056,0.14635 -0.56,0.14635 -0.616,0 -0.868,-0.0659 -0.56,-0.14635 z M 27.92,96.090909 c 0.484,-0.07332 1.276,-0.07332 1.76,0 0.484,0.07332 0.088,0.133309 -0.88,0.133309 -0.968,0 -1.364,-0.05999 -0.88,-0.133309 z m 7.2,-36.14273 c 0.22,-0.08877 0.58,-0.08877 0.8,0 0.22,0.08877 0.04,0.161405 -0.4,0.161405 -0.44,0 -0.62,-0.07263 -0.4,-0.161405 z M 33.239181,57.68 c -0.398039,-0.507539 -0.38672,-0.518858 0.120819,-0.120819 0.308,0.241552 0.56,0.493552 0.56,0.56 0,0.263373 -0.262781,0.09386 -0.680819,-0.439181 z m 69.899979,-5.04 c 0.002,-1.056 0.0615,-1.449421 0.13275,-0.874269 0.0712,0.575152 0.0697,1.439152 -0.003,1.92 -0.073,0.480848 -0.13129,0.01027 -0.12949,-1.045731 z M 106.56,47.579869 c 0,-0.05507 0.468,-0.523072 1.04,-1.04 L 108.64,45.6 107.70013,46.64 C 106.82404,47.609427 106.56,47.827088 106.56,47.579869 Z M 35.159181,41.04 c -0.398039,-0.507539 -0.38672,-0.518858 0.120819,-0.120819 0.308,0.241552 0.56,0.493552 0.56,0.56 0,0.263373 -0.262781,0.09386 -0.680819,-0.439181 z m -2.56,-2.56 C 32.201142,37.972461 32.212461,37.961142 32.72,38.359181 33.25304,38.777219 33.422554,39.04 33.159181,39.04 c -0.06645,0 -0.318448,-0.252 -0.56,-0.56 z M 83.46,32.741405 c 0.230998,-0.09244 0.507002,-0.08107 0.613334,0.02525 0.106333,0.106336 -0.08267,0.181965 -0.42,0.16807 C 83.28055,32.919363 83.204726,32.843542 83.46,32.741392 Z m 2.88,0 c 0.230998,-0.09244 0.507002,-0.08107 0.613334,0.02525 0.106333,0.106336 -0.08267,0.181965 -0.42,0.16807 C 86.16055,32.919363 86.084726,32.843542 86.34,32.741392 Z M 40.425219,0.08002102 c 14.225869,-0.04609964 37.409869,-0.04609443 51.52,1.158e-5 C 106.05535,0.12613861 94.416,0.1638565 66.08,0.16385013 37.744,0.16384376 26.199348,0.12612066 40.425219,0.08002102 Z"
       id="path4353"
       inkscape:connector-curvature="0" />
    <path
       style="fill:#6fcefa;stroke-width:0.31999999"
       d="m 47.94,103.7814 c 0.230998,-0.0924 0.506998,-0.0811 0.613334,0.0252 0.106333,0.10634 -0.08267,0.18197 -0.42,0.16807 -0.372784,-0.0154 -0.448608,-0.0912 -0.193334,-0.19333 z m 8,0 c 0.230998,-0.0924 0.506998,-0.0811 0.613334,0.0252 0.106333,0.10634 -0.08267,0.18197 -0.42,0.16807 -0.372784,-0.0154 -0.448608,-0.0912 -0.193334,-0.19333 z M 38.359181,82.96 c -0.398039,-0.507539 -0.38672,-0.518858 0.120819,-0.120819 0.308,0.241552 0.56,0.493552 0.56,0.56 0,0.263373 -0.262781,0.09386 -0.680819,-0.439181 z M 33.099869,70.64 32.16,69.6 33.2,70.539869 c 0.572,0.516928 1.04,0.984928 1.04,1.04 0,0.247219 -0.264042,0.02957 -1.140131,-0.939869 z M 27.914241,58.88 c 0,-0.616 0.06585,-0.868 0.146343,-0.56 0.08049,0.308 0.08049,0.812 0,1.12 -0.08049,0.308 -0.146343,0.056 -0.146343,-0.56 z m 75.176279,-3.84 c 0,-0.44 0.0726,-0.62 0.16141,-0.4 0.0888,0.22 0.0888,0.58 0,0.8 -0.0888,0.22 -0.16141,0.04 -0.16141,-0.4 z M 108.48,45.639181 c 0,-0.06645 0.252,-0.318448 0.56,-0.56 0.50754,-0.398039 0.51886,-0.38672 0.12082,0.120819 -0.41804,0.53304 -0.68082,0.702554 -0.68082,0.439181 z m -4.16,-3.499312 c 0,-0.05507 0.468,-0.523072 1.04,-1.04 L 106.4,40.16 105.46013,41.2 C 104.58404,42.169427 104.32,42.387088 104.32,42.139869 Z M 33.895779,39.76 33.12,38.88 34,39.655779 c 0.822493,0.725085 1.026749,0.984221 0.775779,0.984221 -0.05732,0 -0.453318,-0.396 -0.88,-0.88 z M 72.32,37.92 c 0.41336,-0.44 0.823562,-0.8 0.911562,-0.8 0.088,0 -0.178202,0.36 -0.591562,0.8 -0.41336,0.44 -0.823562,0.8 -0.911562,0.8 -0.088,0 0.178202,-0.36 0.591562,-0.8 z"
       id="path4351"
       inkscape:connector-curvature="0" />
    <path
       style="fill:#51c4fa;stroke-width:0.31999999"
       d="m 87.04,90.459869 c 0,-0.05507 0.468,-0.523072 1.04,-1.04 L 89.12,88.48 88.180131,89.52 C 87.304042,90.489427 87.04,90.707088 87.04,90.459869 Z M 39.319181,83.92 c -0.398039,-0.507539 -0.38672,-0.518858 0.120819,-0.120819 0.308,0.241552 0.56,0.493552 0.56,0.56 0,0.263373 -0.262781,0.09386 -0.680819,-0.439181 z"
       id="path4349"
       inkscape:connector-curvature="0" />
    <path
       style="fill:#41bffa;stroke-width:0.31999999"
       d="M 12.060079,131.35946 C 6.6412099,129.86985 2.2378784,125.4172 0.78484358,119.95795 c -0.6848431,-2.57306 -0.6848431,-105.182841 0,-107.755894 C 2.2583462,6.6658954 6.6658954,2.2583462 12.202056,0.78484358 c 2.573053,-0.6848431 105.182834,-0.6848431 107.755894,0 5.53616,1.47350262 9.9437,5.88105182 11.41721,11.41721242 0.68484,2.573053 0.68484,105.182834 0,107.755894 -1.47351,5.53616 -5.88105,9.9437 -11.41721,11.41721 -2.4597,0.65467 -105.513755,0.63968 -107.897871,-0.0157 z M 62.54256,103.05448 C 79.780141,99.569722 93.073421,88.233878 99.810509,71.274243 101.80709,66.248128 103.36,58.031146 103.36,52.492611 c 0,-1.238934 0.11701,-2.252611 0.26002,-2.252611 0.91607,0 8.75417,-8.372477 8.28104,-8.84561 -0.0973,-0.09729 -0.96213,0.116896 -1.92186,0.475978 -1.74378,0.652432 -4.55553,1.411619 -6.56412,1.772349 l -1.06492,0.191251 1.57566,-1.245488 c 1.9832,-1.567626 3.30298,-3.163014 4.50168,-5.441741 1.78748,-3.397997 1.77541,-3.411453 -1.6072,-1.791558 -1.63916,0.784979 -4.20173,1.77448 -5.69458,2.198893 l -2.71429,0.771657 -1.552915,-1.396205 c -5.851078,-5.260623 -15.492976,-5.683604 -22.099241,-0.969472 -5.229424,3.731639 -7.767632,9.0257 -7.5017,15.646656 l 0.126941,3.160404 -1.932259,-0.212896 C 52.777014,53.157642 41.468874,47.576598 33.022243,38.54864 L 30.4876,35.839555 29.662627,37.679779 c -1.126596,2.513034 -1.485596,4.264557 -1.494804,7.292989 -0.01515,4.982691 1.675563,9.173254 5.112753,12.672352 1.36745,1.39208 1.961798,2.19488 1.624966,2.19488 -0.861571,0 -4.195447,-0.934432 -5.685513,-1.593562 L 27.84,57.635987 l 0.0056,0.862007 c 0.0031,0.474102 0.217189,1.870006 0.47585,3.102006 1.313736,6.257293 5.686235,11.244326 11.802703,13.461514 l 1.955891,0.708998 -2.195616,0.235837 c -1.207587,0.129712 -2.978205,0.155065 -3.934707,0.05635 -1.673389,-0.172711 -1.73112,-0.153108 -1.528084,0.518905 0.569584,1.885203 2.426964,4.747523 4.298407,6.624074 2.943517,2.951549 7.447805,5.081286 10.8,5.106499 0.572,0.0043 1.04,0.11799 1.04,0.252637 0,0.474745 -5.384535,3.628688 -8.050963,4.715779 -4.682375,1.908986 -7.799165,2.510259 -13.147655,2.536371 -2.59524,0.01267 -4.71924,0.110554 -4.72,0.217517 -7.68e-4,0.106963 1.71871,1.083555 3.821044,2.170198 5.602537,2.895811 11.01799,4.544481 18.417574,5.606981 2.464694,0.35391 12.58711,-0.13545 15.66256,-0.75718 z"
       id="path4347"
       inkscape:connector-curvature="0" />
  </g>
</svg>
