<?xml version="1.0" encoding="UTF-8" standalone="no"?>
<!-- Created with Inkscape (http://www.inkscape.org/) -->

<svg
   xmlns:dc="http://purl.org/dc/elements/1.1/"
   xmlns:cc="http://creativecommons.org/ns#"
   xmlns:rdf="http://www.w3.org/1999/02/22-rdf-syntax-ns#"
   xmlns:svg="http://www.w3.org/2000/svg"
   xmlns="http://www.w3.org/2000/svg"
   xmlns:sodipodi="http://sodipodi.sourceforge.net/DTD/sodipodi-0.dtd"
   xmlns:inkscape="http://www.inkscape.org/namespaces/inkscape"
   version="1.1"
   id="svg4051"
   width="104.35669"
   height="104.35669"
   viewBox="0 0 104.35669 104.35669"
   sodipodi:docname="wikipedia.svg"
   inkscape:version="0.92.4 (5da689c313, 2019-01-14)">
  <metadata
     id="metadata4057">
    <rdf:RDF>
      <cc:Work
         rdf:about="">
        <dc:format>image/svg+xml</dc:format>
        <dc:type
           rdf:resource="http://purl.org/dc/dcmitype/StillImage" />
        <dc:title></dc:title>
      </cc:Work>
    </rdf:RDF>
  </metadata>
  <defs
     id="defs4055" />
  <sodipodi:namedview
     pagecolor="#ffffff"
     bordercolor="#666666"
     borderopacity="1"
     objecttolerance="10"
     gridtolerance="10"
     guidetolerance="10"
     inkscape:pageopacity="0"
     inkscape:pageshadow="2"
     inkscape:window-width="1616"
     inkscape:window-height="1006"
     id="namedview4053"
     showgrid="true"
     inkscape:zoom="7.6947631"
     inkscape:cx="44.900668"
     inkscape:cy="52.178345"
     inkscape:window-x="0"
     inkscape:window-y="0"
     inkscape:window-maximized="0"
     inkscape:current-layer="svg4051"
     showguides="false"
     inkscape:snap-bbox="true"
     inkscape:snap-global="true">
    <inkscape:grid
       type="xygrid"
       id="grid4134" />
  </sodipodi:namedview>
  <g
     id="wikipedia"
     transform="matrix(0.57544292,0,0,0.57544292,-0.02776202,44.333133)"
     style="fill:#000080">
    <path
       style="fill:#000080;stroke-width:0.20382166"
       d="m 16.891199,90.751594 c -0.661077,-0.93794 1.137239,1.071993 0,0 z m 70.14065,0.279733 c 1.379062,-1.607703 0.302833,0.216363 0,0 z M 13.426231,87.286626 c -0.661078,-0.93794 1.137239,1.071992 0,0 z m 77.070586,0.279733 c 1.379061,-1.607702 0.302835,0.216359 0,0 z M 49.952398,37.38429 c 0.131122,-0.785515 0.206758,0.927712 0,0 z M 38.484077,35.325736 c 1.139471,-0.175951 -0.350441,0.34941 0,0 z m 19.56688,0 c 1.13947,-0.17595 -0.350444,0.349409 0,0 z M 14.918716,34.751593 c 0.09173,-1.162332 0.197349,1.258589 0,0 z m 22.228226,-0.203822 c 0.07345,-1.550936 0.192968,1.621327 0,0 z m 52.16668,0.203822 c 0.09173,-1.162331 0.197346,1.258589 0,0 z M 13.248408,17.247887 c 1.379056,-1.607699 0.302841,0.216354 0,0 z m 77.426231,-0.279734 c -0.661075,-0.937938 1.137237,1.071991 0,0 z M 16.713376,13.782919 c 1.379056,-1.607699 0.302842,0.216353 0,0 z m 70.496295,-0.279734 c -0.661076,-0.937939 1.137238,1.071991 0,0 z"
       id="path4075"
       inkscape:connector-curvature="0" />
    <path
       style="fill:#000080;stroke-width:0.20382166"
       d="m 16.279734,90.140129 c -0.661077,-0.93794 1.137239,1.071993 0,0 z m 71.36358,0.279733 c 1.379062,-1.607703 0.302833,0.216363 0,0 z M 14.037696,87.898091 c -0.661078,-0.93794 1.137239,1.071992 0,0 z m 75.847656,0.279733 c 1.379061,-1.607702 0.302835,0.216359 0,0 z M 65.222931,38.037696 c 1.379043,-1.607708 0.302869,0.21636 0,0 z m -27.350319,-2.71196 c 1.139471,-0.175951 -0.350441,0.34941 0,0 z M 33.670309,34.34395 c 0.09173,-1.162332 0.197347,1.258586 0,0 z M 13.859873,16.636422 c 1.379056,-1.607699 0.302841,0.216354 0,0 z m 76.203301,-0.279734 c -0.661075,-0.937938 1.137237,1.071991 0,0 z M 16.101911,14.394384 c 1.379055,-1.607698 0.302843,0.216351 0,0 z M 87.821136,14.11465 c -0.703543,-1.001374 1.251724,1.21736 0,0 z"
       id="path4073"
       inkscape:connector-curvature="0" />
    <path
       style="fill:#000080;stroke-width:0.20382166"
       d="m 15.668269,89.528664 c -0.661073,-0.937941 1.137238,1.07197 0,0 z m 72.58651,0.279733 c 1.379064,-1.607727 0.302829,0.216402 0,0 z M 14.649161,88.509556 c -0.661078,-0.93794 1.137239,1.071992 0,0 z m 74.624726,0.279733 c 1.379044,-1.607709 0.302866,0.216363 0,0 z M 33.541767,35.201401 c 0.714265,-0.930143 -0.258078,0.848178 0,0 z m 20.114729,-0.65363 c 0.07346,-1.550937 0.19299,1.621332 0,0 z M 19.515924,33.681717 c 2.489817,-0.02521 9.424505,-0.06135 9.216238,0.04861 -2.777559,0.0023 -8.298289,0.04902 -9.216238,-0.04861 z m 56.057789,0.0022 c 2.873303,-0.179859 2.531551,0.224601 0,0 z M 14.471338,16.024957 c 1.379056,-1.607698 0.302841,0.216354 0,0 z m 74.980371,-0.279734 c -0.661075,-0.937941 1.137261,1.071992 0,0 z M 15.490446,15.005849 c 1.379055,-1.607698 0.302843,0.216351 0,0 z m 72.942155,-0.279734 c -0.703543,-1.001374 1.251724,1.21736 0,0 z"
       id="path4071"
       inkscape:connector-curvature="0" />
    <path
       style="fill:#000080;stroke-width:0.20382166"
       d="m 63.747601,81.792152 c 2.193604,-0.270055 -0.217582,0.34111 0,0 z M 39.195792,33.68219 c 2.326929,-0.109626 7.070304,0.08357 2.078094,0.06583 0.04876,-0.04367 -3.313833,0.06901 -2.078094,-0.06583 z m 41.353423,2.04e-4 c 1.95628,-0.104837 7.168961,0.07572 2.30429,0.0652 -0.347501,0.01105 -4.385348,-0.02301 -2.30429,-0.0652 z"
       id="path4069"
       inkscape:connector-curvature="0" />
    <path
       style="fill:#000080;stroke-width:0.20382166"
       d="m 49.477708,104.2217 c 1.268305,-0.20217 0.01586,0.35266 0,0 z m 4.89172,0 c 1.268307,-0.20217 0.01586,0.35266 0,0 z M 40.81809,81.790049 c 2.708349,-0.275069 -0.202903,0.333549 0,0 z M 0.03218237,54.624205 c 0.15283047,-1.126835 0.15282656,1.126832 0,0 z m 104.15286763,0 c 0.1528,-1.126912 0.15291,1.127081 0,0 z M 0.03218237,49.732485 c 0.15283438,-1.126837 0.15282264,1.12683 0,0 z m 104.15286763,0 c 0.1528,-1.126914 0.1529,1.127079 0,0 z M 56.882335,34.93843 c 0.131122,-0.785515 0.206758,0.927712 0,0 z m 17.563971,-0.390659 c 0.07345,-1.550936 0.192968,1.621327 0,0 z M 47.439491,33.682369 c 2.00658,-0.111405 6.574606,0.08088 2.089172,0.06606 0.03764,-0.05228 -3.14675,0.08074 -2.089172,-0.06606 z m 40.36034,0.0043 c 2.739996,-0.06887 0.354711,0.133621 0,0 z M 49.477708,0.06883451 c 1.268339,-0.20219015 0.01581,0.35265541 0,0 z m 4.89172,0 c 1.26834,-0.2021901 0.01581,0.35265542 0,0 z"
       id="path4067"
       inkscape:connector-curvature="0" />
    <path
       style="fill:#000080;stroke-width:0.20382166"
       d="m 50.394905,104.21619 c 1.74771,-0.19827 0.07504,0.3282 0,0 z m 2.853504,0 c 1.747712,-0.19827 0.07504,0.3282 0,0 z M 0.04728718,53.605097 c 0.11310055,-1.391436 0.11310055,1.391436 0,0 z m 104.15286282,0 c 0.11307,-1.391436 0.11307,1.391436 0,0 z M 0.04728718,50.751593 c 0.11310104,-1.391435 0.11310012,1.391437 0,0 z m 104.15286282,0 c 0.11308,-1.391434 0.11307,1.391436 0,0 z M 84.6879,37.299364 c 1.532838,-1.483187 -1.056459,1.451991 0,0 z M 71.303154,34.644371 c 0.05449,-1.726582 -3.262877,-0.38755 -4.642823,-0.809975 -3.204489,0.148713 -6.664134,-0.418312 -9.654168,0.410767 -0.345559,-0.868535 3.06208,-0.40245 4.387049,-0.512673 3.34876,0 6.697519,0 10.046279,0 0.188518,0.444542 -0.153684,2.498735 -0.136337,0.911881 z M 50.394905,0.06332219 c 1.747703,-0.19829706 0.07505,0.32822778 0,0 z m 2.853504,0 c 1.747706,-0.19829683 0.07504,0.32822776 0,0 z"
       id="path4065"
       inkscape:connector-curvature="0" />
    <path
       style="fill:#000080;stroke-width:0.20382166"
       d="M 50.140128,104.22177 C 29.748014,103.64987 10.548642,89.880678 3.5085382,70.717852 -4.1084532,51.338952 1.4140317,27.714414 16.95625,13.827213 31.619737,-0.01766874 54.573673,-3.7595358 72.953949,4.4230894 92.13108,12.522624 105.25593,33.013185 104.17195,53.869207 103.94696,76.587576 86.75412,97.575196 64.714636,102.74303 c -4.756622,1.18027 -9.683688,1.57776 -14.574508,1.47874 z m -6.602812,-24.9861 c 3.355753,-6.58387 6.704257,-13.172914 10.187308,-19.690554 3.155601,7.468215 6.32571,14.930286 9.498548,22.391191 2.319721,0.709196 2.331938,-2.068114 3.21396,-3.531197 5.864365,-13.344089 11.329086,-26.886164 17.563549,-40.050168 0.749948,-1.918616 8.689795,-4.048887 4.002008,-4.724418 -4.535927,0 -9.071855,0 -13.607783,0 -0.780752,3.149639 6.693541,2.033633 5.206896,5.838469 -4.59031,10.505618 -9.034498,21.093971 -13.7591,31.526066 -2.997416,-5.652336 -5.366658,-11.7809 -7.958942,-17.688077 2.500676,-5.172365 4.564601,-10.651755 7.791731,-15.413506 1.05062,-2.457985 7.101794,-1.452142 5.468997,-4.161041 -4.725445,0 -9.450889,0 -14.176334,0 -1.19453,3.51934 7.722298,0.875454 3.972789,5.995926 -1.599543,3.586714 -3.320105,7.117586 -5.011734,10.661372 -1.89329,-4.408056 -4.279539,-8.683741 -5.716369,-13.227611 0.705587,-1.330002 5.873419,-2.219831 2.711063,-3.531548 -5.27612,0 -10.552241,0 -15.828361,0 -0.984952,3.920265 5.678027,0.564032 6.494818,4.288646 2.984168,6.07295 5.715348,12.27685 8.347492,18.51001 -2.830522,5.45213 -5.707645,10.880867 -8.63315,16.282577 -4.745431,-11.178351 -9.806025,-22.227952 -14.360778,-33.484348 -1.431107,-4.160455 6.031471,-2.001131 4.890472,-5.596931 -6.318472,0 -12.636943,0 -18.955415,0 0.35275,3.451297 6.402205,3.79469 7.487522,7.765172 6.099548,12.23181 11.065303,25.007688 16.675911,37.471864 0.270958,3.310593 3.820405,4.212386 4.332314,0.693558 l 0.13184,-0.263905 z"
       id="path4063"
       inkscape:connector-curvature="0" />
  </g>
</svg>
